name D:\school\WTK\thesis\model\3dpredictsim\Results\batch_windlass\Pog_s1_tmt_aCst_d00_k800_WL30_ig24.mot
datacolumns 128
datarows 4
range 1.06006892 1.09187098
endheader
time	pelvis_tilt	pelvis_list	pelvis_rotation	pelvis_tx	pelvis_ty	pelvis_tz	hip_flexion_l	hip_adduction_l	hip_rotation_l	hip_flexion_r	hip_adduction_r	hip_rotation_r	knee_angle_l	knee_angle_r	ankle_angle_l	ankle_angle_r	subtalar_angle_l	subtalar_angle_r	tmt_angle_l	tmt_angle_r	mtp_angle_l	mtp_angle_r	lumbar_extension	lumbar_bending	lumbar_rotation	arm_flex_l	arm_add_l	arm_rot_l	arm_flex_r	arm_add_r	arm_rot_r	elbow_flex_l	elbow_flex_r	pro_sup_l	pro_sup_r	glut_med1_l/activation	glut_med2_l/activation	glut_med3_l/activation	glut_min1_l/activation	glut_min2_l/activation	glut_min3_l/activation	semimem_l/activation	semiten_l/activation	bifemlh_l/activation	bifemsh_l/activation	sar_l/activation	add_long_l/activation	add_brev_l/activation	add_mag1_l/activation	add_mag2_l/activation	add_mag3_l/activation	tfl_l/activation	pect_l/activation	grac_l/activation	glut_max1_l/activation	glut_max2_l/activation	glut_max3_l/activation	iliacus_l/activation	psoas_l/activation	quad_fem_l/activation	gem_l/activation	peri_l/activation	rect_fem_l/activation	vas_med_l/activation	vas_int_l/activation	vas_lat_l/activation	med_gas_l/activation	lat_gas_l/activation	soleus_l/activation	tib_post_l/activation	flex_dig_l/activation	flex_hal_l/activation	tib_ant_l/activation	per_brev_l/activation	per_long_l/activation	per_tert_l/activation	ext_dig_l/activation	ext_hal_l/activation	ercspn_l/activation	intobl_l/activation	extobl_l/activation	glut_med1_r/activation	glut_med2_r/activation	glut_med3_r/activation	glut_min1_r/activation	glut_min2_r/activation	glut_min3_r/activation	semimem_r/activation	semiten_r/activation	bifemlh_r/activation	bifemsh_r/activation	sar_r/activation	add_long_r/activation	add_brev_r/activation	add_mag1_r/activation	add_mag2_r/activation	add_mag3_r/activation	tfl_r/activation	pect_r/activation	grac_r/activation	glut_max1_r/activation	glut_max2_r/activation	glut_max3_r/activation	iliacus_r/activation	psoas_r/activation	quad_fem_r/activation	gem_r/activation	peri_r/activation	rect_fem_r/activation	vas_med_r/activation	vas_int_r/activation	vas_lat_r/activation	med_gas_r/activation	lat_gas_r/activation	soleus_r/activation	tib_post_r/activation	flex_dig_r/activation	flex_hal_r/activation	tib_ant_r/activation	per_brev_r/activation	per_long_r/activation	per_tert_r/activation	ext_dig_r/activation	ext_hal_r/activation	ercspn_r/activation	intobl_r/activation	extobl_r/activation	
          1.06006892	         -2.92712245	         -1.36682806	          5.91330255	          1.32508614	          0.86074872	         -0.00229282	        -17.35406384	         -1.43729920	          8.30931047	         31.69276141	          1.54629747	         -2.95600204	         -9.14765305	        -19.26350699	          0.59716035	          0.19645976	         13.89210417	          1.69096424	         -8.08668578	         -0.47245358	         27.61183431	          1.39234260	         -0.86893039	         -0.41450252	         -1.58014442	          5.01089050	        -13.45611722	         14.40753867	        -10.73863783	        -13.67701857	          6.14923827	         36.08323849	         19.23186438	         86.51662706	         86.51662706	          0.27865818	          0.10753773	          0.05301219	          0.30575010	          0.21183835	          0.10740628	          0.05000333	          0.05000034	          0.05000030	          0.07389927	          0.08530012	          0.09520162	          0.05000047	          0.05000092	          0.05000190	          0.05000130	          0.30927379	          0.05000527	          0.05000151	          0.05000606	          0.05000289	          0.05000183	          0.32231605	          0.51279493	          0.05000060	          0.05000281	          0.05000084	          0.26748937	          0.05366850	          0.05078621	          0.06735349	          0.28816391	          0.35938352	          0.23117832	          0.19508270	          0.19458061	          0.25808008	          0.05000002	          0.14362916	          0.20903385	          0.05000013	          0.05000004	          0.05000014	          0.05000003	          0.05000014	          0.05000004	          0.05000060	          0.05002119	          0.05000219	          0.06921375	          0.05003192	          0.05000139	          0.07869953	          0.06586397	          0.17586860	          0.05000041	          0.05000080	          0.12423633	          0.14391117	          0.10617059	          0.13134441	          0.08330759	          0.05000141	          0.05002724	          0.09918455	          0.05472948	          0.06684153	          0.10392821	          0.06859080	          0.06137933	          0.21814250	          0.05001750	          0.05000177	          0.05000177	          0.07620463	          0.08370212	          0.06774094	          0.08984335	          0.06922886	          0.06737908	          0.05000056	          0.05000226	          0.05000250	          0.42757560	          0.26767292	          0.16578716	          0.15370758	          0.51562425	          0.05000188	          0.05536717	          0.11456316	          0.12549920	
          1.07066961	         -2.91853497	         -1.47037584	          6.17485872	          1.34119116	          0.85998809	         -0.00208630	        -17.09634034	         -1.72377621	          8.05507076	         31.18297531	          1.98383913	         -2.76747374	        -11.13681419	        -18.91927648	         -0.40642193	         -0.19514481	         14.78342014	          1.14929432	         -8.64003404	         -0.55877621	         28.54045958	          1.66943690	         -0.66790322	         -0.16244733	         -1.65559531	          4.82488580	        -13.47447546	         14.79759402	        -11.77046922	        -13.66019763	          5.92587490	         36.95951131	         19.21008214	         86.51662706	         86.51662706	          0.23681780	          0.09139099	          0.05000004	          0.25984187	          0.18003092	          0.09127930	          0.05000202	          0.05000029	          0.05000015	          0.06280333	          0.07249246	          0.14488410	          0.10556345	          0.05000087	          0.05000178	          0.05000096	          0.26283661	          0.06669533	          0.05000080	          0.05000197	          0.05000137	          0.05000095	          0.27392037	          0.46591067	          0.05000013	          0.05000030	          0.05000009	          0.22732590	          0.10427850	          0.05385733	          0.09585168	          0.24489613	          0.30542212	          0.19646691	          0.16579110	          0.16536451	          0.21932948	          0.05000029	          0.12206378	          0.17764757	          0.05000041	          0.12550637	          0.05000047	          0.05000004	          0.05000006	          0.06158327	          0.05883391	          0.05883385	          0.05003683	          0.05883377	          0.05883375	          0.05883370	          0.06688299	          0.05883464	          0.15809922	          0.06107686	          0.05000069	          0.11278055	          0.19053129	          0.09022982	          0.14497600	          0.09575824	          0.05000098	          0.05013194	          0.14160333	          0.05882998	          0.06508068	          0.12135798	          0.05829199	          0.05216329	          0.29448376	          0.06223508	          0.05901546	          0.05000005	          0.10914951	          0.12218352	          0.09884622	          0.07635342	          0.05883425	          0.05883391	          0.05000003	          0.05000070	          0.05000268	          0.44207308	          0.25155899	          0.15121994	          0.22997605	          0.52499462	          0.05000006	          0.05000017	          0.09736153	          0.10665552	
          1.08127029	         -2.90468494	         -1.57127653	          6.41174535	          1.35754768	          0.85895006	         -0.00186861	        -16.75963334	         -1.99091093	          7.77451699	         30.59251480	          2.41621736	         -2.52715288	        -13.30708785	        -19.10190822	         -1.41298265	         -0.59286193	         15.59902335	          0.56500643	         -9.06444656	         -0.64925517	         28.98095620	          1.88663724	         -0.45077652	          0.09247778	         -1.72488172	          4.57324493	        -13.50958562	         15.13490863	        -12.78902738	        -13.64615836	          5.76003435	         37.81518707	         19.15268518	         86.51662706	         86.51662706	          0.20125967	          0.07766872	          0.05248693	          0.22082672	          0.15299937	          0.07757393	          0.05715657	          0.05000051	          0.05232852	          0.05337347	          0.06160785	          0.21740660	          0.23620730	          0.38999645	          0.15430228	          0.13990845	          0.22337195	          0.05668218	          0.05000102	          0.05000218	          0.05000176	          0.05000313	          0.23279127	          0.39595434	          0.05000048	          0.06923258	          0.06922852	          0.19319300	          0.08862187	          0.18375045	          0.08146098	          0.20812499	          0.25956302	          0.16696742	          0.14089762	          0.14053520	          0.18639728	          0.17573024	          0.10373600	          0.15097385	          0.05000147	          0.21341837	          0.14191410	          0.05000003	          0.08145980	          0.06922845	          0.05000003	          0.05000010	          0.07922192	          0.05000007	          0.05000009	          0.05000015	          0.05684053	          0.05000070	          0.13436066	          0.05883385	          0.05883679	          0.09585255	          0.20217785	          0.41868435	          0.26968445	          0.08138034	          0.05000033	          0.05203160	          0.12357833	          0.05000154	          0.05883410	          0.13509478	          0.06922859	          0.06922882	          0.58662264	          0.13300997	          0.08268865	          0.06922888	          0.27882824	          0.27393830	          0.23489979	          0.06488897	          0.05000030	          0.05000001	          0.05001880	          0.05477829	          0.05000035	          0.59890043	          0.21378746	          0.12851430	          0.41569252	          0.57267580	          0.05883426	          0.05000001	          0.08274271	          0.09064121	
          1.09187098	         -2.88741467	         -1.68217070	          6.62293148	          1.37406856	          0.85760203	         -0.00167423	        -16.34105911	         -2.24342542	          7.47949426	         29.79263647	          2.80158239	         -2.20371807	        -15.67775292	        -19.54544474	         -2.33013224	         -0.71208974	         16.31066415	         -0.07523159	         -9.16470016	         -0.77533475	         28.52669193	          1.96556145	         -0.22353627	          0.36325195	         -1.78124477	          4.26573247	        -13.55480726	         15.41810084	        -13.77781485	        -13.64787488	          5.68887758	         38.66479179	         19.04416353	         86.51662706	         86.51662706	          0.18859760	          0.06600687	          0.05070097	          0.18766971	          0.13002665	          0.06592635	          0.08306313	          0.05572004	          0.05883372	          0.05000010	          0.05235759	          0.18476332	          0.31125042	          0.33143863	          0.13113450	          0.11890139	          0.28053586	          0.05883823	          0.05883417	          0.05883476	          0.05883755	          0.05895192	          0.19783776	          0.37848028	          0.05883411	          0.05883757	          0.05883391	          0.16418511	          0.07531535	          0.15616037	          0.06922966	          0.17687504	          0.22058967	          0.14189728	          0.11974191	          0.11943400	          0.15840986	          0.24056436	          0.09583806	          0.14511834	          0.27663796	          0.27828955	          0.15940459	          0.08579101	          0.06922862	          0.05883398	          0.32112476	          0.31840512	          0.38257515	          0.18997766	          0.05000154	          0.33760278	          0.09843878	          0.11980556	          0.13913714	          0.05000005	          0.05000257	          0.08146051	          0.25886818	          0.35581906	          0.22920219	          0.15066613	          0.05000032	          0.06923180	          0.10502361	          0.05000019	          0.05000032	          0.14471920	          0.05883400	          0.05883415	          0.49854133	          0.11303866	          0.23903504	          0.05883418	          0.25148226	          0.25481545	          0.21289084	          0.05883391	          0.05699975	          0.05883391	          0.06825686	          0.05000219	          0.05883429	          0.52225684	          0.18168732	          0.10921791	          0.35327641	          0.59056267	          0.05000031	          0.05000005	          0.09585181	          0.07703145	
